<?xml version="1.0" encoding="utf-8"?>
<!-- Generator: Adobe Illustrator 16.0.0, SVG Export Plug-In . SVG Version: 6.00 Build 0)  -->
<!DOCTYPE svg PUBLIC "-//W3C//DTD SVG 1.1//EN" "http://www.w3.org/Graphics/SVG/1.1/DTD/svg11.dtd">
<svg version="1.1" id="Layer_1" xmlns="http://www.w3.org/2000/svg" xmlns:xlink="http://www.w3.org/1999/xlink" x="0px" y="0px"
	 width="28px" height="28px" viewBox="0 0 28 28" enable-background="new 0 0 28 28" xml:space="preserve">
<g opacity="1">
	<path d="M23,21c0,0.566-0.2,1.033-0.6,1.4C22.033,22.8,21.566,23,21,23s-1.05-0.2-1.45-0.6C19.184,22.033,19,21.566,19,21
		s0.184-1.05,0.55-1.45C19.95,19.184,20.434,19,21,19s1.033,0.184,1.4,0.55C22.8,19.95,23,20.434,23,21 M23,7
		c0,0.567-0.2,1.033-0.6,1.4C22.033,8.8,21.566,9,21,9s-1.05-0.2-1.45-0.6C19.184,8.033,19,7.567,19,7s0.184-1.05,0.55-1.45
		C19.95,5.183,20.434,5,21,5s1.033,0.183,1.4,0.55C22.8,5.95,23,6.433,23,7 M8.4,5.55C8.8,5.95,9,6.433,9,7S8.8,8.033,8.4,8.4
		C8.033,8.8,7.567,9,7,9S5.95,8.8,5.55,8.4C5.183,8.033,5,7.567,5,7s0.183-1.05,0.55-1.45C5.95,5.183,6.433,5,7,5
		S8.033,5.183,8.4,5.55 M5.55,22.4C5.183,22.033,5,21.566,5,21s0.183-1.05,0.55-1.45C5.95,19.184,6.433,19,7,19
		s1.033,0.184,1.4,0.55C8.8,19.95,9,20.434,9,21s-0.2,1.033-0.6,1.4C8.033,22.8,7.567,23,7,23S5.95,22.8,5.55,22.4"/>
</g>
<rect fill="none" width="28" height="28"/>
</svg>
