<?xml version="1.0" encoding="utf-8"?>
<!-- Generator: Adobe Illustrator 16.0.0, SVG Export Plug-In . SVG Version: 6.00 Build 0)  -->
<!DOCTYPE svg PUBLIC "-//W3C//DTD SVG 1.1//EN" "http://www.w3.org/Graphics/SVG/1.1/DTD/svg11.dtd">
<svg version="1.1" id="Layer_1" xmlns="http://www.w3.org/2000/svg" xmlns:xlink="http://www.w3.org/1999/xlink" x="0px" y="0px"
	 width="260.4px" height="75.5px" viewBox="0 0 260.4 75.5" enable-background="new 0 0 260.4 75.5" xml:space="preserve">
<g>
	<path fill="#00CCFF" d="M196.85,3.4c3.033,1.834,5.333,4.334,6.899,7.5c0.767,1.6,1.351,3.283,1.75,5.05
		c0.4,1.767,0.601,3.634,0.601,5.601c0,4.133-0.834,7.783-2.5,10.949c-1.667,3.2-4,5.7-7,7.5c-1.5,0.9-3.117,1.584-4.851,2.051
		l-5.5,0.8c-4.1,0-7.649-0.934-10.649-2.8c-3-1.834-5.267-4.334-6.801-7.5c-0.8-1.566-1.399-3.234-1.8-5
		c-0.366-1.768-0.55-3.634-0.55-5.601c0-2.033,0.2-3.966,0.6-5.8c0.4-1.8,1.017-3.517,1.851-5.15c1.666-3.199,4-5.717,7-7.55
		c3-1.8,6.45-2.75,10.35-2.85C190.317,0.601,193.85,1.533,196.85,3.4 M186.35,7.15c-2.134,0-4.101,0.6-5.9,1.8
		c-1.8,1.233-3.25,2.967-4.35,5.2c-0.567,1.1-0.983,2.3-1.25,3.6c-0.267,1.301-0.4,2.684-0.4,4.15c0,1.4,0.117,2.733,0.35,4
		c0.268,1.233,0.634,2.416,1.101,3.55c0.934,2.2,2.283,3.9,4.05,5.101c0.9,0.6,1.866,1.05,2.9,1.35l3.35,0.45l3.15-0.4
		c1-0.267,1.949-0.683,2.85-1.25c1.8-1.066,3.233-2.733,4.3-5c0.533-1.1,0.934-2.333,1.2-3.7c0.233-1.366,0.35-2.85,0.35-4.449
		c0-2.768-0.466-5.25-1.399-7.45c-0.967-2.167-2.333-3.866-4.101-5.101c-0.899-0.6-1.866-1.066-2.899-1.399L186.35,7.15
		 M205.25,7.601v-6.05h32.7l1.25,6.05h-13.85V42h-7.801V7.601H205.25 M250.75,1.9H247.6v7.9h-1.75V1.9H243V0.5h7.55L250.75,1.9
		 M253.35,0.5l3.149,4.301l2.8-4.301h1.101v9.301h-1.8V4.45l-1.7,2.4L256.2,7L254,4.101v5.7h-1.75V0.5H253.35 M24.45,7.5l-3.3-0.3
		l-3.5,0.4c-1.101,0.3-2.15,0.716-3.15,1.25c-2,1.134-3.566,2.8-4.7,5C8.6,16.051,8,18.734,8,21.9c0,2.9,0.5,5.45,1.5,7.65
		c0.5,1.1,1.101,2.066,1.8,2.899c0.7,0.833,1.5,1.55,2.4,2.15c1.8,1.167,3.867,1.75,6.2,1.75L25.8,35.7v-9.85h-8.5l0.65-5.95H32.7
		v19.95c-1.667,0.866-3.6,1.583-5.8,2.149c-2.167,0.566-4.434,0.851-6.8,0.851c-4.101,0-7.667-0.934-10.7-2.8
		c-1.5-0.9-2.833-1.984-4-3.25c-1.167-1.268-2.15-2.684-2.95-4.25C1.617,30.95,1,29.268,0.6,27.5C0.2,25.734,0,23.884,0,21.95
		C0,19.917,0.217,18,0.65,16.2c0.467-1.833,1.149-3.55,2.05-5.149C4.5,7.816,7,5.283,10.2,3.45c1.6-0.899,3.3-1.583,5.1-2.05
		l5.75-0.65l5.4,0.65c2.134,0.434,4.017,1.084,5.65,1.95l-2.45,5.5L28.05,8.4L24.45,7.5 M42.6,13.15V30.9
		c0,1.767,0.383,3.15,1.149,4.15c0.7,1,1.7,1.5,3,1.5c1.367,0,2.65-0.316,3.851-0.95l3.899-2.45v-20h7.75V42h-5.1l-1.3-3.1
		c-1.767,1.267-3.667,2.267-5.7,3c-2.033,0.7-3.833,1.05-5.4,1.05c-3.633,0-6.183-1.033-7.649-3.1c-0.767-1.034-1.334-2.267-1.7-3.7
		c-0.367-1.434-0.55-3.066-0.55-4.9v-18.1H42.6 M95.1,0.7l7.8-0.7v42h-4.05l-1.75-2.6c-1.301,1.1-2.65,1.934-4.051,2.5
		c-1.366,0.566-2.8,0.85-4.3,0.85c-4.5,0-8.05-1.366-10.649-4.1c-1.267-1.367-2.233-2.967-2.9-4.8
		c-0.633-1.833-0.95-3.917-0.95-6.25c0-3,0.584-5.65,1.75-7.95c1.167-2.3,2.867-4.084,5.101-5.35c2.199-1.268,4.833-1.9,7.899-1.9
		l3.05,0.5c1.067,0.334,2.084,0.8,3.051,1.4V0.7 M66.05,1.601c0.834-0.833,1.851-1.25,3.051-1.25c1.199,0,2.233,0.417,3.1,1.25
		c0.833,0.833,1.25,1.866,1.25,3.1s-0.417,2.267-1.25,3.101c-0.866,0.833-1.9,1.25-3.1,1.25c-1.2,0-2.217-0.417-3.051-1.25
		C65.217,6.967,64.8,5.934,64.8,4.7S65.217,2.434,66.05,1.601 M73,13.15V42h-7.7V13.15H73 M84.05,21.4
		c-0.633,0.8-1.083,1.717-1.35,2.75c-0.333,1.033-0.5,2.184-0.5,3.45s0.15,2.417,0.45,3.45S83.4,32.984,84,33.75
		c0.601,0.801,1.334,1.4,2.2,1.801c0.833,0.366,1.783,0.55,2.85,0.55c1.034,0,2.034-0.184,3-0.55
		c0.967-0.434,1.983-1.051,3.051-1.851V21.4c-1.033-0.867-2.017-1.483-2.95-1.85C91.183,19.184,90.15,19,89.05,19
		C86.95,19,85.283,19.801,84.05,21.4 M119.3,12.4l4,0.5c1.233,0.334,2.334,0.834,3.301,1.5c2,1.334,3.467,3.15,4.399,5.45
		c0.967,2.267,1.45,4.816,1.45,7.649v2.351H113c0.4,2.033,1.267,3.583,2.601,4.649c1.333,1.066,3.366,1.601,6.1,1.601l4.25-0.65
		c1.267-0.433,2.634-1.066,4.1-1.899l2.25,5.6c-1.433,1.133-3.017,2.017-4.75,2.65c-1.699,0.633-3.716,0.949-6.05,0.949
		c-2.733,0-5.133-0.35-7.2-1.05c-2.1-0.667-3.85-1.667-5.25-3c-1.433-1.333-2.5-2.917-3.199-4.75c-0.7-1.866-1.051-3.983-1.051-6.35
		c0-3.034,0.584-5.7,1.75-8c0.567-1.167,1.267-2.184,2.101-3.05c0.833-0.9,1.816-1.667,2.95-2.301c1.066-0.633,2.25-1.1,3.55-1.399
		L119.3,12.4 M115.15,20.45c-1.101,0.967-1.8,2.384-2.101,4.25h12.101c-0.434-1.899-1.15-3.316-2.15-4.25
		c-1-0.966-2.3-1.45-3.899-1.45C117.533,19,116.217,19.484,115.15,20.45 M143.1,18.051h5.75l3.05-0.301l2.35-1
		c0.667-0.399,1.167-0.934,1.5-1.6c0.334-0.6,0.5-1.316,0.5-2.15c0-0.934-0.133-1.717-0.399-2.35c-0.233-0.633-0.617-1.15-1.15-1.55
		C153.634,8.367,152.084,8,150.05,8H143.1V18.051 M156.7,2.25c1.634,0.434,3.033,1.117,4.2,2.051c2.333,1.833,3.5,4.684,3.5,8.55
		c0,1.267-0.351,2.5-1.05,3.7c-0.733,1.199-1.834,2.366-3.301,3.5c4.167,2.199,6.25,5.55,6.25,10.05c0,1.866-0.316,3.517-0.949,4.95
		c-0.667,1.467-1.634,2.717-2.9,3.75c-2.566,2.133-6.033,3.199-10.4,3.199h-16.6V1.551h15.7C153.217,1.551,155.067,1.783,156.7,2.25
		 M151.95,24.301h-8.85v11.35h8.35c2.1,0,3.767-0.483,5-1.45c0.6-0.466,1.066-1.033,1.4-1.7c0.3-0.666,0.449-1.449,0.449-2.35
		c0-1.867-0.566-3.3-1.699-4.3c-0.567-0.534-1.233-0.934-2-1.2L151.95,24.301"/>
	<path fill="#FFFFFF" d="M209.45,53.351l3.15-0.25V70h-1.65l-0.7-1.05l-1.6,1l-1.75,0.351c-1.8,0-3.233-0.551-4.3-1.65
		c-0.5-0.566-0.884-1.217-1.15-1.95s-0.4-1.566-0.4-2.5c0-1.2,0.233-2.267,0.7-3.2s1.15-1.649,2.05-2.149
		c0.9-0.534,1.967-0.8,3.2-0.8l1.2,0.25c0.434,0.133,0.85,0.316,1.25,0.55V53.351 M198.6,53.75c0.333,0.334,0.5,0.75,0.5,1.25
		c0,0.467-0.167,0.867-0.5,1.2c-0.334,0.333-0.75,0.5-1.25,0.5c-0.467,0-0.867-0.167-1.2-0.5c-0.367-0.333-0.55-0.733-0.55-1.2
		c0-0.5,0.183-0.916,0.55-1.25c0.333-0.366,0.733-0.55,1.2-0.55C197.85,53.2,198.266,53.384,198.6,53.75 M198.95,58.4V70h-3.15V58.4
		H198.95 M204.25,64.2l0.2,1.4l0.55,1.1l0.851,0.7l1.149,0.2l1.25-0.2l1.2-0.75V61.7l-1.2-0.75L207,60.7c-0.833,0-1.5,0.333-2,1
		l-0.55,1.101L204.25,64.2 M190.35,66.45V58.4h3.1V70h-2.05l-0.5-1.25l-2.3,1.2l-2.2,0.45c-1.467,0-2.5-0.416-3.101-1.25l-0.649-1.5
		c-0.167-0.566-0.25-1.233-0.25-2V58.4h3.149v7.1c0,0.734,0.15,1.301,0.45,1.7c0.267,0.4,0.667,0.601,1.2,0.601l1.55-0.351
		L190.35,66.45 M225.05,61.051c0.4,0.934,0.601,1.967,0.601,3.1v0.95H217.8c0.167,0.833,0.517,1.466,1.051,1.899
		c0.533,0.4,1.35,0.601,2.449,0.601l1.75-0.25l1.65-0.75l0.9,2.25c-0.601,0.466-1.233,0.816-1.9,1.05l-2.45,0.4l-2.95-0.4
		c-0.833-0.3-1.533-0.717-2.1-1.25s-0.983-1.166-1.25-1.9c-0.3-0.766-0.45-1.616-0.45-2.55c0-1.233,0.233-2.316,0.7-3.25
		c0.233-0.433,0.517-0.833,0.85-1.2c0.334-0.366,0.733-0.666,1.2-0.899l1.4-0.601l1.7-0.199l1.6,0.25l1.35,0.6
		C224.1,59.434,224.683,60.15,225.05,61.051 M218.65,61.301c-0.434,0.399-0.7,0.982-0.8,1.75h4.85
		c-0.167-0.768-0.45-1.351-0.85-1.75c-0.4-0.4-0.917-0.601-1.551-0.601C219.634,60.7,219.084,60.9,218.65,61.301 M7,53.351
		l3.8,7.149l3.95-6.8h3.3L12.35,63.801V70H9.25v-6.35l-5.3-9.4L7,53.351 M22.05,62.851L21.85,64.2l0.199,1.4l0.65,1.05
		c0.566,0.633,1.283,0.95,2.15,0.95l1.199-0.2L27,66.65l0.65-1.1l0.2-1.4c0-1-0.283-1.816-0.851-2.45l-0.95-0.75L24.85,60.7
		l-1.15,0.25l-1,0.75C22.433,62.033,22.217,62.417,22.05,62.851 M20.35,59.75l1.25-0.899c0.933-0.534,2.017-0.8,3.25-0.8l1.75,0.199
		c0.533,0.134,1.033,0.316,1.5,0.551c0.5,0.266,0.916,0.566,1.25,0.899l0.949,1.25c0.5,0.9,0.75,1.967,0.75,3.2
		s-0.25,2.316-0.75,3.25l-0.949,1.2l-1.25,0.95c-0.934,0.5-2.017,0.75-3.25,0.75l-1.75-0.2l-1.5-0.55
		c-0.934-0.5-1.667-1.2-2.2-2.101l-0.55-1.5l-0.2-1.75l0.2-1.75c0.133-0.533,0.316-1.033,0.55-1.5L20.35,59.75 M180.25,54.45l-1,2.2
		l-0.649-0.2l-1.45-0.35L175.8,56l-1.399,0.15l-1.25,0.5c-0.8,0.467-1.434,1.133-1.9,2c-0.5,0.9-0.75,1.983-0.75,3.25
		c0,1.166,0.2,2.2,0.601,3.1l0.75,1.15L172.8,67c0.733,0.467,1.567,0.7,2.5,0.7l2.4-0.25V63.5h-3.45l0.25-2.399h5.95v8.05
		c-0.667,0.334-1.434,0.617-2.3,0.85l-2.75,0.351c-1.667,0-3.101-0.384-4.3-1.15l-1.65-1.3c-0.467-0.5-0.85-1.066-1.15-1.7
		c-0.333-0.634-0.583-1.316-0.75-2.05l-0.25-2.2c0-0.833,0.084-1.616,0.25-2.35c0.2-0.733,0.483-1.417,0.851-2.05
		c0.7-1.334,1.7-2.367,3-3.101c0.666-0.366,1.35-0.634,2.05-0.8l2.3-0.3l2.2,0.3C178.817,53.816,179.584,54.084,180.25,54.45
		 M157.85,55c1.199,0.867,1.8,2.101,1.8,3.7c0,0.967-0.25,1.833-0.75,2.601c-0.533,0.732-1.217,1.3-2.05,1.699l4,7h-3.301
		l-3.449-6.199h-2.95V70h-3.05V53.7h5.1l2.55,0.351C156.516,54.25,157.217,54.566,157.85,55 M155.55,56.95
		c-0.566-0.433-1.383-0.649-2.449-0.649h-1.95v5h2l1.3-0.15l1.05-0.45c0.567-0.399,0.851-1.017,0.851-1.85
		C156.35,57.984,156.084,57.351,155.55,56.95 M139.75,53.7l6.351,16.101L143,70.25l-1.5-4.1h-6.149L133.9,70H130.8l6.351-16.3
		H139.75 M123.35,53.101V70h-3.101V53.351L123.35,53.101 M117.65,62.351V70h-2.05l-0.551-1.25c-0.966,1.033-1.982,1.551-3.05,1.551
		l-1.85-0.25l-1.3-0.801l-0.75-1.199c-0.2-0.434-0.301-0.934-0.301-1.5c0-0.601,0.101-1.134,0.301-1.601
		c0.199-0.466,0.5-0.85,0.899-1.149c0.8-0.667,1.867-1,3.2-1h2.3c-0.033-0.566-0.217-1.018-0.55-1.351c-0.3-0.333-0.733-0.5-1.3-0.5
		l-1.8,0.2l-1.601,0.55l-0.85-2.6c0.399-0.267,1.066-0.5,2-0.7l2.2-0.35l1.3,0.149l1.2,0.4c0.767,0.366,1.383,0.884,1.85,1.55
		l0.5,1.05L117.65,62.351 M105.65,60.801h-3.05v4.949c0,0.601,0.149,1.101,0.449,1.5c0.301,0.367,0.717,0.551,1.25,0.551l1.25-0.301
		l0.9,2.25l-1.05,0.5l-1.3,0.25l-1.9-0.3c-0.566-0.167-1.066-0.433-1.5-0.8c-0.8-0.733-1.2-1.767-1.2-3.1v-5.5h-1.55v-2.4h1.55
		v-2.75l3.101-0.55v3.3h2.1L105.65,60.801 M110.9,67.45c0.267,0.233,0.616,0.351,1.05,0.351c0.934,0,1.783-0.384,2.55-1.15V64.9
		h-2.35c-0.5,0-0.9,0.166-1.2,0.5c-0.333,0.3-0.5,0.684-0.5,1.15C110.45,66.884,110.6,67.184,110.9,67.45 M140.55,63.65l-2.149-5.7
		l-2.15,5.7H140.55 M93.5,53.75c0.334-0.366,0.733-0.55,1.2-0.55c0.5,0,0.917,0.184,1.25,0.55c0.333,0.334,0.5,0.75,0.5,1.25
		c0,0.467-0.167,0.867-0.5,1.2s-0.75,0.5-1.25,0.5c-0.467,0-0.866-0.167-1.2-0.5c-0.366-0.333-0.55-0.733-0.55-1.2
		C92.95,54.5,93.134,54.084,93.5,53.75 M74.25,53.75c0.334-0.366,0.733-0.55,1.2-0.55c0.5,0,0.917,0.184,1.25,0.55
		c0.333,0.334,0.5,0.75,0.5,1.25c0,0.467-0.167,0.867-0.5,1.2s-0.75,0.5-1.25,0.5c-0.467,0-0.866-0.167-1.2-0.5
		c-0.366-0.333-0.55-0.733-0.55-1.2C73.7,54.5,73.884,54.084,74.25,53.75 M66.95,67.4l1.2-0.75V61.7c-0.4-0.333-0.8-0.583-1.2-0.75
		L65.7,60.7c-0.833,0-1.5,0.333-2,1l-0.55,1.101l-0.2,1.399l0.2,1.4l0.55,1.1l0.85,0.7l1.15,0.2L66.95,67.4 M83,61.7l-0.55,1.101
		l-0.2,1.399l0.2,1.4L83,66.7l0.851,0.7l1.149,0.2l1.25-0.2l1.2-0.75V61.7l-1.2-0.75L85,60.7C84.167,60.7,83.5,61.033,83,61.7
		 M79.75,61c0.467-0.934,1.15-1.649,2.05-2.149c0.9-0.534,1.967-0.8,3.2-0.8l1.65,0.399c0.633,0.267,1.184,0.601,1.649,1l0.65-1.05
		h1.65v12.15c0,0.8-0.15,1.5-0.45,2.1L88.9,74.2l-1.95,1l-2.55,0.3L82,75.15c-1-0.267-1.783-0.584-2.35-0.95L80.6,72l1.949,0.75
		L84.35,73c0.933,0,1.683-0.217,2.25-0.649l0.649-0.8l0.2-1v-1l-1.25,0.55l-1.3,0.2c-1.8,0-3.233-0.551-4.3-1.65
		c-0.5-0.566-0.884-1.217-1.15-1.95s-0.4-1.566-0.4-2.5C79.05,63,79.283,61.934,79.75,61 M68.15,53.351l3.149-0.25V70H69.65
		l-0.7-1.05l-1.6,1l-1.75,0.351c-1.801,0-3.233-0.551-4.301-1.65c-0.5-0.566-0.883-1.217-1.149-1.95s-0.4-1.566-0.4-2.5
		c0-1.2,0.233-2.267,0.7-3.2s1.15-1.649,2.05-2.149c0.9-0.534,1.967-0.8,3.2-0.8l1.2,0.25l1.25,0.55V53.351 M77.05,70H73.9V58.4
		h3.149V70 M96.3,70H93.15V58.4H96.3V70 M40.55,66.45V58.4h3.101V70H41.6l-0.5-1.25l-2.301,1.2L36.6,70.4
		c-1.467,0-2.5-0.416-3.101-1.25l-0.649-1.5c-0.167-0.566-0.25-1.233-0.25-2V58.4h3.149v7.1c0,0.734,0.15,1.301,0.45,1.7
		c0.267,0.4,0.667,0.601,1.2,0.601l1.55-0.351L40.55,66.45 M49.15,62.9V70H46V58.4h1.65l1.05,1.9c0.533-0.467,1.184-0.9,1.95-1.301
		c0.733-0.399,1.399-0.6,2-0.6l0.6,2.45c-0.533,0-1.183,0.2-1.95,0.6C50.533,61.816,49.816,62.301,49.15,62.9"/>
</g>
</svg>
