<?xml version="1.0" encoding="utf-8"?>
<!-- Generator: Adobe Illustrator 16.0.0, SVG Export Plug-In . SVG Version: 6.00 Build 0)  -->
<!DOCTYPE svg PUBLIC "-//W3C//DTD SVG 1.1//EN" "http://www.w3.org/Graphics/SVG/1.1/DTD/svg11.dtd">
<svg version="1.1" id="Layer_1" xmlns="http://www.w3.org/2000/svg" xmlns:xlink="http://www.w3.org/1999/xlink" x="0px" y="0px"
	 width="130px" height="180px" viewBox="0 0 130 180" enable-background="new 0 0 130 180" xml:space="preserve">
<g>
	<path fill="#35C6F4" d="M120.25,29.356c-0.267-0.6-0.634-1.066-1.101-1.399l-0.8-0.351l-0.899-0.1c-0.567,0-1.084,0.15-1.551,0.45
		c-0.5,0.333-0.899,0.8-1.199,1.399l-0.301,1c-0.1,0.334-0.149,0.7-0.149,1.101l0.1,1.05l0.3,0.95
		c0.267,0.6,0.634,1.066,1.101,1.399l0.8,0.351l0.9,0.149l0.85-0.149l0.75-0.3c0.5-0.301,0.884-0.75,1.15-1.351l0.3-1l0.1-1.2
		C120.6,30.623,120.483,29.957,120.25,29.356 M122.149,28.507l0.45,1.35l0.2,1.5c0,1.101-0.233,2.084-0.7,2.95
		c-0.434,0.867-1.05,1.533-1.85,2l-1.3,0.55l-1.5,0.25c-1.101,0-2.051-0.25-2.851-0.75c-0.833-0.5-1.45-1.183-1.85-2.05l-0.5-1.35
		l-0.15-1.5l0.2-1.55l0.5-1.4c0.434-0.866,1.05-1.533,1.85-2c0.801-0.5,1.733-0.767,2.801-0.8c1.1,0,2.05,0.25,2.85,0.75
		S121.717,27.641,122.149,28.507 M126.75,36.856h-2.05V25.957h2.05V36.856 M110.85,27.907l0.3,1.55l-0.149,1.1l-0.45,0.9
		c-0.4,0.533-0.934,0.934-1.6,1.2l-1.101,0.3l-1.1,0.1h-1.25v3.8h-2.05V25.957h3.399l1.75,0.25c0.533,0.133,1,0.35,1.4,0.649
		C110.399,27.123,110.684,27.474,110.85,27.907 M108.45,28.157c-0.2-0.167-0.434-0.284-0.7-0.351l-0.95-0.1h-1.3v3.649h1.35
		l0.851-0.1l0.649-0.35c0.367-0.301,0.584-0.733,0.65-1.301l-0.15-0.899L108.45,28.157 M81.35,86.157l0.15-0.351
		c0.1-0.1,0.216-0.149,0.35-0.149l0.35,0.149l0.15,0.351v6l-0.15,0.35l-0.35,0.15l-0.35-0.15l-0.15-0.35V86.157 M82.199,73.807
		l0.15,0.351v6l-0.15,0.35l-0.35,0.15l-0.35-0.15l-0.15-0.35v-6l0.15-0.351c0.1-0.1,0.216-0.149,0.35-0.149L82.199,73.807
		 M81.5,61.807c0.1-0.1,0.216-0.149,0.35-0.149l0.35,0.149l0.15,0.351v6l-0.15,0.35l-0.35,0.15l-0.35-0.15l-0.15-0.35v-6
		L81.5,61.807 M81.35,50.157l0.15-0.351c0.1-0.1,0.216-0.149,0.35-0.149l0.35,0.149l0.15,0.351v6l-0.15,0.35l-0.35,0.15l-0.35-0.15
		l-0.15-0.35V50.157 M81.35,42.856l0.15-0.35c0.1-0.1,0.216-0.15,0.35-0.15l0.35,0.15l0.15,0.35v1.301l-0.15,0.35l-0.35,0.15
		l-0.35-0.15l-0.15-0.35V42.856 M81.35,134.157l0.15-0.351c0.1-0.1,0.216-0.149,0.35-0.149l0.35,0.149l0.15,0.351v6l-0.15,0.35
		l-0.35,0.15l-0.35-0.15l-0.15-0.35V134.157 M82.199,121.807l0.15,0.351v6l-0.15,0.35l-0.35,0.15l-0.35-0.15l-0.15-0.35v-6
		l0.15-0.351c0.1-0.1,0.216-0.149,0.35-0.149L82.199,121.807 M81.5,109.807c0.1-0.1,0.216-0.149,0.35-0.149l0.35,0.149l0.15,0.351v6
		l-0.15,0.35l-0.35,0.15l-0.35-0.15l-0.15-0.35v-6L81.5,109.807 M82.199,97.807l0.15,0.351v6l-0.15,0.35l-0.35,0.15l-0.35-0.15
		l-0.15-0.35v-6l0.15-0.351c0.1-0.1,0.216-0.149,0.35-0.149L82.199,97.807 M82.35,152.157l-0.15,0.35l-0.35,0.15l-0.35-0.15
		l-0.15-0.35v-6l0.15-0.351c0.1-0.1,0.216-0.149,0.35-0.149l0.35,0.149l0.15,0.351V152.157 M82.199,168.457l0.15,0.35v6l-0.15,0.351
		l-0.35,0.149l-0.35-0.149l-0.15-0.351v-6l0.15-0.35c0.1-0.101,0.216-0.15,0.35-0.15L82.199,168.457 M81.5,156.457
		c0.1-0.101,0.216-0.15,0.35-0.15l0.35,0.15l0.15,0.35v6l-0.15,0.351l-0.35,0.149l-0.35-0.149l-0.15-0.351v-6L81.5,156.457"/>
	<g>
		
			<image overflow="visible" width="707" height="440" xlink:href="6FA37A98115C6F7.png"  transform="matrix(0.24 0 0 0.24 -23.7568 106.3066)">
		</image>
	</g>
	<path fill="#35C6F4" fill-opacity="0.149" d="M91.75,32.957c2.733,2.733,4.1,6.033,4.1,9.899c0,3.867-1.366,7.167-4.1,9.9
		s-6.033,4.1-9.9,4.1c-3.866,0-7.166-1.366-9.899-4.1s-4.101-6.033-4.101-9.9c0-3.866,1.367-7.166,4.101-9.899
		s6.033-4.101,9.899-4.101C85.717,28.856,89.017,30.224,91.75,32.957"/>
	<path fill="#35C6F4" fill-opacity="0.4" d="M81.85,48.856c-1.667,0-3.083-0.583-4.25-1.75c-1.167-1.166-1.75-2.583-1.75-4.25
		c0-1.666,0.583-3.083,1.75-4.25c1.167-1.166,2.583-1.75,4.25-1.75s3.083,0.584,4.25,1.75c1.167,1.167,1.75,2.584,1.75,4.25
		c0,1.667-0.583,3.084-1.75,4.25C84.933,48.273,83.517,48.856,81.85,48.856"/>
	<path fill="#35C6F4" fill-opacity="0.2" d="M88.899,35.807c1.967,1.934,2.95,4.283,2.95,7.05s-0.983,5.117-2.95,7.051
		c-1.934,1.966-4.283,2.949-7.05,2.949s-5.117-0.983-7.05-2.949c-1.967-1.934-2.95-4.284-2.95-7.051s0.983-5.116,2.95-7.05
		c1.933-1.967,4.283-2.95,7.05-2.95S86.966,33.84,88.899,35.807"/>
	<path fill="#35C6F4" fill-opacity="0.102" d="M94.6,30.106c3.5,3.534,5.25,7.784,5.25,12.75c0,4.967-1.75,9.217-5.25,12.75
		c-3.533,3.5-7.783,5.25-12.75,5.25s-9.217-1.75-12.75-5.25c-3.5-3.533-5.25-7.783-5.25-12.75c0-4.966,1.75-9.216,5.25-12.75
		c3.533-3.5,7.783-5.25,12.75-5.25S91.066,26.606,94.6,30.106"/>
	<path fill="#010101" d="M45.35,5.106l2,1.5l1.35,1.301C49.3,8.641,49.666,9.29,49.8,9.856l0.05,1.051l-0.35,0.25l-0.2,0.149v0.601
		v1l-0.05,1.199l-0.15,1.65l-0.25,0.95l-0.3,0.25l-0.351,0.3l-0.1,0.35l0.2,0.95l0.2,1.351l0.149,0.899l-0.35,0.351l-0.601,0.25
		l-0.3,0.05l0.05,0.3l0.101,0.6l-0.05,0.45l-0.4,0.351l-0.25,0.1l0.05,0.25l0.05,0.5l-0.25,0.4
		c-0.433,0.267-0.733,0.566-0.899,0.899l0.05,0.75l-0.1,0.65l-0.851,0.3l-1.5,0.1l-1.5-0.05l-1.5-0.05H39.75l0.5,0.3l1.25,0.7
		l1.399,0.8L44,29.407l1.449,0.8l1.9,1l1.45,0.75l0.95,0.5l0.949,0.85l0.851,1.65l0.649,1.75l0.601,2l0.45,1.7l0.3,1.1l0.35,1.35
		l0.5,2.351l0.55,2.5l0.4,1.8l0.35,1.7l0.301,1.5l0.149,0.6l1.05,0.351l2.801,0.5h1.949l2.301-0.25l2.05-0.351l1.399-0.35l1.4-0.55
		l0.85-0.551l0.75-0.699l1.051-0.9l0.75-0.65c0.199-0.133,0.433-0.216,0.699-0.25l0.75-0.1l0.551-0.05l0.55-0.15l0.6-0.2l0.25-0.1
		l9.7-10.55l0.2,0.25l0.149,0.649v0.801l-0.1,0.6l-0.75,0.95l-1.7,2l-2.05,2.35l-1.75,1.95l-0.7,0.8l0.25,0.15l0.55,0.399l0.301,0.4
		l0.05,0.35l-0.05,0.4l-0.45,0.3l-0.9,0.25l-0.35,0.05l0.05,0.301l0.1,0.6l-0.1,0.55l-0.35,0.4l-0.25,0.2v0.3l0.05,0.6v0.55v0.601
		v0.6l-0.2,0.45l-0.65,0.5l-0.8,0.5l-0.899,0.4l-1.301,0.5l-1.1,0.199l-1.3,0.15l-0.95,0.2l-0.85,0.45l-1.4,0.8l-1.65,0.649l-2,0.5
		l-2.949,0.65l-3.351,0.6l-2.95,0.45l-2,0.2l-1.149,0.1l-0.75-0.149l-0.7-0.4l-1.25-0.85l-1.15-0.9l-0.5-0.399l-0.05,0.55l-0.05,1.5
		l-0.1,1.899l-0.051,1.801v1.149l0.2,1.65l0.25,2.149l-0.1,2.051l-0.15,1.649l0.25,1.3l0.3,0.9l0.15,0.9l0.05,1.399l0.101,1.4
		l0.1,0.85l0.05,0.601l0.101,0.6v0.3l0.1,1.05l0.3,2.801l0.2,3.949l0.1,4.45l-0.05,7.15l-0.2,6.149l-0.35,4.7l-0.5,2.851
		c-0.2,0.6-0.35,1.383-0.45,2.35l-0.25,2.9l-0.1,2.699v1.65l0.25,2.15l0.3,3.75l0.05,4.449l-0.1,3.7v4.05l-0.05,3.9l-0.25,3.3
		l-0.45,3.2l-0.05,2.1l0.149,1.301l0.351,0.8l0.25,0.649l0.1,0.9l0.1,0.95l0.4,1l0.8,1.5l1.351,1.95l1.6,1.85l1.4,1.7l1.199,2.149
		l0.301,1.95c0,0.4-0.25,0.767-0.75,1.101l-1.75,0.8l-2.051,0.25l-2.199-0.4c-0.834-0.267-1.584-0.6-2.25-1
		c-0.667-0.399-1.15-0.883-1.45-1.45l-0.75-1.649l-0.8-1.55l-0.65-1L42,167.307l-0.4-0.3l-0.75,0.2l-0.45-0.351l-0.95-0.85
		l-1.05-0.9l-0.5-0.55l-0.149-0.75v-1.25l0.1-1l0.25-0.7l0.1-0.35l-0.1-0.45l-0.1-1v-0.899l-0.101-0.95l-0.25-1.55l-0.25-1.7
		l-0.1-1.45l0.05-1.7l0.05-2.3l-0.05-2.55l-0.25-2.4l-0.3-2.649l-0.2-3.15l-0.05-3l0.05-2.2l-0.05-2.1l-0.2-1.9v-1.3l0.25-1.1
		l-0.25-1.2l-0.3-1.3l-0.4-2.101l-0.25-2.2l-0.149-1.649l-0.051-1.5l-0.149-2.3l-0.15-2.551l-0.25-2.35l-0.25-1.7L34,105.157
		l-0.101-0.7l-0.2,0.7l-0.5,1.699l-0.649,2.25L32,111.207l-0.4,2.149l-0.3,1.7l-0.45,1.65l-0.8,2.55c-0.267,0.8-0.434,1.634-0.5,2.5
		l-0.15,2l-0.2,1.95l-0.449,1.8l-0.551,1.6l-0.6,2.101l-0.55,2.149l-0.25,1.851l-0.05,2.649v3.45l-0.25,3.7l-0.301,2.55l-0.399,3.15
		l-0.4,3.1l-0.3,2.65l-0.15,1.6l-0.35,1.5l-0.7,1.65l-0.6,1.35l-0.3,0.55l-0.051,0.65v1.55c-0.033,0.634-0.017,1.267,0.051,1.9
		l0.25,2.95c0.033,1.033-0.117,2.116-0.45,3.25l-0.75,1.699l-1,0.95l-1.101,0.5l-1.149,0.2l-1.65-0.05l-1.649-0.3
		c-0.5-0.134-0.867-0.317-1.101-0.551c-0.366-0.267-0.667-0.75-0.899-1.449c-0.233-0.733-0.367-1.551-0.4-2.45
		c-0.066-0.934,0-1.867,0.2-2.8l0.6-2.2l0.65-2.3l0.55-1.75l0.2-0.7l-0.25-0.75l-0.55-1.9l-0.45-2.1c-0.067-0.7-0.033-1.25,0.1-1.65
		l0.351-1.649l0.3-2.101l0.1-2.1v-1.4l-0.1-1.5l-0.101-2.8l-0.1-3.45l0.05-3.45l0.2-2.85l0.45-3.35l0.45-3.45l0.449-3.05
		c0.167-0.9,0.317-1.551,0.45-1.95l0.45-1.8l0.35-2.25l0.25-2.25l0.2-2.25l0.2-3l0.05-3.101l-0.149-2.8l-0.301-2.5l-0.199-2.5
		l-0.15-1.9l-0.05-0.75l-0.75-0.199v0.3l-0.2,0.55c-0.134,0.134-0.367,0.134-0.7,0l-0.95-0.65l-0.75-0.55L13,96.507l-0.9-0.65
		l-0.85-0.8l-0.2-0.35l-0.2-0.05l-0.5-0.351l-0.65-1L9.05,91.407l-0.4-2.351l-0.25-2l-0.2-1.55l-0.399-2l-0.55-2.05l-0.65-1.65
		l-0.55-1.75l-0.7-2.899l-0.75-3.5l-0.7-3.5l-0.45-2.9l-0.199-1.7l0.25-3.05l0.6-3.2l0.4-1.95l0.75-3l0.85-3.449l0.9-3.4l0.699-2.6
		c0.167-0.733,0.434-1.551,0.801-2.45l1.149-2.9l1.3-2.8L12,32.507l0.649-1.25c0.167-0.333,0.384-0.616,0.65-0.85
		c0.233-0.2,0.433-0.351,0.6-0.45l0.25-0.2l1.25-0.5l1.95-0.7l2.2-0.75l2-0.7l1.399-0.399l1.351-0.45l1.6-0.6l1.4-0.601l0.95-0.45
		l0.75-1.05l0.8-1.95l0.6-2.149l0.15-1.75l-0.25-2.3c-0.101-0.967-0.101-2.017,0-3.15c0.133-1.167,0.45-2.35,0.95-3.55
		c0.566-1.2,1.333-2.217,2.3-3.05c0.967-0.834,2.033-1.467,3.2-1.9c1.166-0.4,2.35-0.566,3.55-0.5c0.866,0.066,1.733,0.283,2.6,0.65
		C43.767,4.207,44.583,4.606,45.35,5.106 M16.8,90.007l-0.2-0.2l-0.05,0.601l0.05,1.149c0,0.467,0.05,0.884,0.15,1.25l0.199,0.8
		v-0.5L17,92.057l0.1-1.3l-0.1-0.3L16.8,90.007 M16.399,55.307l-0.649-1.7l-0.25,0.4l-0.551,0.9l-0.6,1l-0.45,0.8l-0.3,1.05
		l-0.3,1.65l-0.351,1.649l-0.3,1.15c-0.233,0.467-0.383,0.899-0.45,1.3c-0.1,0.4-0.083,0.85,0.051,1.35l0.25,1.351l0.199,2.149
		l0.2,2.5l0.2,2.45l0.3,2.4l0.4,2.6l0.5,2.25l0.6,1.55l0.8,1.15l1,1.1l1.101,1.7l-0.05-0.8l-0.101-1.8l-0.2-2.05l-0.25-1.351
		L17,78.457v-2.25l0.1-2.4v-3.75l-0.1-3.75l-0.051-3.55l0.101-3.1l-0.101-2.101L16.399,55.307"/>
</g>
</svg>
